<?xml version="1.0" encoding="UTF-8" standalone="no"?>
<!-- Created with Inkscape (http://www.inkscape.org/) -->

<svg
   xmlns:dc="http://purl.org/dc/elements/1.1/"
   xmlns:cc="http://creativecommons.org/ns#"
   xmlns:rdf="http://www.w3.org/1999/02/22-rdf-syntax-ns#"
   xmlns:svg="http://www.w3.org/2000/svg"
   xmlns="http://www.w3.org/2000/svg"
   xmlns:sodipodi="http://sodipodi.sourceforge.net/DTD/sodipodi-0.dtd"
   xmlns:inkscape="http://www.inkscape.org/namespaces/inkscape"
   width="128mm"
   height="128mm"
   viewBox="0 0 128 128"
   version="1.1"
   id="svg3719"
   inkscape:version="0.92.3 (2405546, 2018-03-11)"
   sodipodi:docname="drawing-1.svg">
  <defs
     id="defs3713">
    <inkscape:path-effect
       effect="spiro"
       id="path-effect3736"
       is_visible="true" />
  </defs>
  <sodipodi:namedview
     id="base"
     pagecolor="#ffffff"
     bordercolor="#666666"
     borderopacity="1.0"
     inkscape:pageopacity="0.0"
     inkscape:pageshadow="2"
     inkscape:zoom="1.979899"
     inkscape:cx="177.63197"
     inkscape:cy="232.68849"
     inkscape:document-units="mm"
     inkscape:current-layer="layer1"
     showgrid="false"
     inkscape:window-width="2880"
     inkscape:window-height="1706"
     inkscape:window-x="-11"
     inkscape:window-y="-11"
     inkscape:window-maximized="1" />
  <metadata
     id="metadata3716">
    <rdf:RDF>
      <cc:Work
         rdf:about="">
        <dc:format>image/svg+xml</dc:format>
        <dc:type
           rdf:resource="http://purl.org/dc/dcmitype/StillImage" />
        <dc:title></dc:title>
      </cc:Work>
    </rdf:RDF>
  </metadata>
  <g
     inkscape:label="Layer 1"
     inkscape:groupmode="layer"
     id="layer1"
     transform="translate(0,-169)">
    <path
       style="fill:none;stroke:#000000;stroke-width:0.99999994px;stroke-linecap:butt;stroke-linejoin:miter;stroke-opacity:1"
       d="m 13.132812,211.90234 c -0.246602,0.0227 -0.485036,0.11621 -0.685546,0.26172 -0.200512,0.14551 -0.363977,0.34195 -0.472657,0.56446 -0.217356,0.44507 -0.212091,0.98261 -0.02539,1.4414 0.186697,0.45876 0.544586,0.83875 0.972656,1.08789 0.42807,0.24907 0.923375,0.37179 1.417969,0.39844 0.989188,0.0529 1.9557,-0.2705 2.888672,-0.60352 0.678222,-0.24205 1.366502,-0.48823 2.072265,-0.60937 l -4.53125,-1.86524 c 0.161575,0.009 0.323936,0.0107 0.484375,-0.0117 0.05055,-0.008 0.101362,-0.0158 0.152344,-0.0195 0.05098,-0.002 0.102239,0.002 0.150391,0.0195 0.05139,0.0189 0.0975,0.0504 0.146484,0.0742 0.02449,0.0113 0.04931,0.0236 0.07617,0.0273 0.02687,0.004 0.05446,0.003 0.08008,-0.008 0.03379,-0.0113 0.06268,-0.0398 0.07813,-0.0723 0.01546,-0.034 0.01816,-0.0703 0.0098,-0.10547 -0.0084,-0.034 -0.0285,-0.0672 -0.05469,-0.0918 -0.02615,-0.0265 -0.05721,-0.041 -0.0918,-0.0508 -0.06918,-0.0189 -0.144293,-0.009 -0.210937,0.0176 -0.06664,0.0265 -0.126119,0.0702 -0.183594,0.11328 -0.04777,0.0378 -0.09639,0.073 -0.152344,0.0937 -0.07485,0.0265 -0.159305,0.0223 -0.236328,0.002 -0.07703,-0.0227 -0.148428,-0.0579 -0.21875,-0.0957 -0.26239,-0.14173 -0.519159,-0.29463 -0.794922,-0.4082 -0.275762,-0.11376 -0.574099,-0.18775 -0.871094,-0.16016 z"
       transform="matrix(0.26458333,0,0,0.26458333,0,169)"
       id="path4006" />
    <path
       style="fill:none;stroke:#000000;stroke-width:0.99999994px;stroke-linecap:butt;stroke-linejoin:miter;stroke-opacity:1"
       d="M 19.300781,214.44336 429.13086,383.09961 c -0.069,0.0505 -0.13273,0.10726 -0.20117,0.1582 -0.21438,0.15961 -0.42518,0.33031 -0.58203,0.54688 -0.0261,0.0359 -0.0393,0.0795 -0.0625,0.11719 0.0834,-0.0941 0.16829,-0.18564 0.26172,-0.26954 0.21079,-0.18946 0.44419,-0.35266 0.67773,-0.51367 l 1.84961,0.76172 c 0.72465,-0.7632 1.38518,-1.58838 1.9707,-2.46289 0.25334,-0.37837 0.49092,-0.76633 0.75586,-1.13672 0.34375,-0.48083 0.73104,-0.93055 1.0625,-1.41992 0.39062,-0.57661 0.70263,-1.20335 1.06055,-1.80078 0.8417,-1.40478 1.92911,-2.64247 2.8789,-3.97656 1.13526,-1.59459 2.07699,-3.33153 3.33399,-4.83204 0.57694,-0.6887 1.21583,-1.32187 1.81836,-1.98828 0.56409,-0.62392 1.09534,-1.27661 1.66601,-1.89453 1.53343,-1.66027 3.33414,-3.05774 4.84961,-4.73437 0.47169,-0.52184 0.91379,-1.07025 1.36328,-1.61133 0.827,-0.99542 1.68061,-1.97122 2.42579,-3.0293 0.81845,-1.1622 1.50159,-2.41594 2.12109,-3.69531 0.61054,-1.26089 1.16076,-2.55011 1.81836,-3.78711 0.2767,-0.52048 0.5734,-1.03185 0.91016,-1.51563 0.21441,-0.30806 0.44597,-0.60748 0.60546,-0.94726 0.0922,-0.19658 0.1714,-0.40078 0.26172,-0.59766 -0.23465,0.32917 -0.43809,0.68205 -0.71484,0.97657 -0.14997,0.15945 -0.32166,0.29917 -0.45508,0.47265 -0.16362,0.21283 -0.26761,0.47206 -0.45508,0.66406 -0.13787,0.14109 -0.31328,0.23945 -0.45312,0.37891 -0.11452,0.11429 -0.20069,0.25305 -0.30274,0.37891 -0.20084,0.24778 -0.46376,0.44477 -0.75781,0.56836 -0.14018,0.19823 -0.29256,0.38807 -0.45508,0.56836 -0.4786,0.53072 -1.04726,0.97587 -1.51562,1.51562 -0.72042,0.83017 -1.17807,1.85265 -1.81836,2.74609 -0.20315,0.28351 -0.42443,0.55336 -0.60547,0.85157 -0.2089,0.34367 -0.36402,0.72284 -0.60742,1.04297 -0.18142,0.23845 -0.40742,0.4376 -0.60547,0.66211 -0.35494,0.40229 -0.61498,0.8781 -0.91016,1.32617 -0.72559,1.10184 -1.67468,2.04549 -2.72656,2.84179 -0.25172,0.19068 -0.5095,0.37334 -0.75781,0.56836 -0.54482,0.42837 -1.04122,0.91468 -1.51563,1.41992 -0.44946,0.47868 -0.88075,0.97654 -1.36328,1.42188 -0.43495,0.40142 -0.90976,0.75873 -1.36523,1.13672 -1.34937,1.11983 -2.53881,2.41983 -3.63672,3.78711 -0.80674,1.00463 -1.57072,2.0557 -2.1211,3.2207 -0.29945,0.63387 -0.53636,1.30145 -0.91015,1.89453 -0.28589,0.45362 -0.64742,0.85755 -0.90821,1.32617 -0.15643,0.28162 -0.27555,0.58398 -0.45507,0.85157 -0.18021,0.2688 -0.4165,0.49513 -0.60547,0.75781 -0.23463,0.3264 -0.39161,0.70161 -0.60742,1.04101 -0.0799,0.12574 -0.16866,0.24581 -0.25782,0.36524 0.0378,-0.0896 0.0669,-0.18319 0.10743,-0.27148 0.29257,-0.63682 0.66977,-1.23633 0.91015,-1.89454 0.10356,-0.28335 0.18104,-0.57565 0.30274,-0.85156 0.23773,-0.5396 0.63192,-0.99465 0.9082,-1.51562 0.12775,-0.2408 0.23099,-0.49552 0.30469,-0.75782 0.17495,-0.20375 0.32613,-0.42746 0.45312,-0.66406 0.21672,-0.40327 0.36024,-0.84518 0.60742,-1.23047 0.26227,-0.40864 0.63192,-0.73745 0.90821,-1.13672 0.22858,-0.33052 0.3901,-0.70274 0.60742,-1.04101 0.23218,-0.3614 0.52726,-0.68051 0.75781,-1.04297 0.15791,-0.24866 0.28343,-0.51706 0.45313,-0.75781 0.25273,-0.35826 0.59343,-0.64415 0.91015,-0.94727 0.68478,-0.65473 1.27445,-1.40202 1.81836,-2.17773 0.18607,-0.26536 0.36849,-0.53671 0.60547,-0.75782 0.27462,-0.25602 0.61195,-0.43382 0.91016,-0.6621 0.58613,-0.4489 1.00686,-1.0763 1.51562,-1.61133 0.24616,-0.25886 0.51366,-0.49703 0.75781,-0.75782 0.31507,-0.33652 0.58884,-0.70841 0.90821,-1.04101 0.3151,-0.32806 0.67235,-0.61459 1.06054,-0.85156 0.35044,-0.35048 0.70376,-0.69904 1.06055,-1.04297 0.68874,-0.66429 1.39334,-1.3209 1.9707,-2.08399 0.25913,-0.34246 0.49174,-0.70426 0.75782,-1.04101 0.30096,-0.3809 0.64401,-0.72936 0.9082,-1.13672 0.21865,-0.33725 0.38027,-0.70917 0.60742,-1.04102 0.22847,-0.33373 0.52046,-0.61996 0.75781,-0.94726 0.34602,-0.47721 0.56918,-1.03347 0.90821,-1.51563 0.18614,-0.2646 0.40635,-0.50458 0.60742,-0.75781 0.48389,-0.60968 0.8634,-1.2979 1.36328,-1.89453 0.33286,-0.39731 0.7151,-0.75019 1.06055,-1.13672 0.75534,-0.84559 1.32894,-1.85362 1.66797,-2.93555 -0.22353,0.37043 -0.63156,0.62356 -1.0625,0.66211 -0.2329,0.0208 -0.46735,-0.0165 -0.69336,-0.0762 -0.22606,-0.0597 -0.4458,-0.14089 -0.66993,-0.20703 -0.49349,-0.14551 -1.00523,-0.22015 -1.51562,-0.28516 -0.45536,-0.0578 -0.91129,-0.10932 -1.36328,-0.18945 -1.13862,-0.20175 -2.23634,-0.58172 -3.33399,-0.94531 -2.13361,-0.70708 -4.29545,-1.35434 -6.51562,-1.70508 -0.70995,-0.11199 -1.42837,-0.19447 -2.12305,-0.37891 -1.20223,-0.31925 -2.30335,-0.93574 -3.48437,-1.32617 -0.55786,-0.1844 -1.13397,-0.31891 -1.66602,-0.56836 -0.57902,-0.27125 -1.09098,-0.67174 -1.66797,-0.94726 -0.5303,-0.25342 -1.10411,-0.39602 -1.66601,-0.56836 -0.56134,-0.17201 -1.11378,-0.37447 -1.66797,-0.56836 -1.19913,-0.41938 -2.41215,-0.79883 -3.63672,-1.13672 -1.2954,-0.0972 -2.57689,-0.38457 -3.78906,-0.85156 -0.55809,-0.21502 -1.10075,-0.46866 -1.66602,-0.66407 -1.27744,-0.44145 -2.63824,-0.58178 -3.93945,-0.94726 -1.28852,-0.36182 -2.50724,-0.9413 -3.78906,-1.32617 -1.59073,-0.47762 -3.26142,-0.64872 -4.84961,-1.13477 -0.60741,-0.18588 -1.20135,-0.41718 -1.81836,-0.56836 -0.60155,-0.14717 -1.22055,-0.21714 -1.81836,-0.37891 -0.66902,-0.18107 -1.30358,-0.47621 -1.9707,-0.66406 -0.69767,-0.1965 -1.424,-0.27423 -2.1211,-0.47265 -0.72246,-0.20576 -1.40287,-0.53785 -2.12109,-0.75782 -0.79397,-0.24325 -1.62543,-0.34725 -2.42578,-0.56836 -0.72409,-0.20016 -1.41739,-0.49475 -2.1211,-0.75781 -2.74511,-1.0258 -5.64125,-1.57101 -8.48633,-2.27344 -1.42159,-0.35096 -2.83204,-0.74225 -4.24218,-1.13671 -1.50478,-0.42097 -3.01148,-0.84646 -4.54688,-1.13672 -0.80935,-0.15307 -1.62615,-0.26743 -2.42383,-0.47266 -0.76446,-0.19676 -1.50673,-0.47622 -2.27343,-0.66406 -0.75186,-0.18441 -1.52384,-0.27952 -2.27344,-0.47266 -0.77368,-0.19937 -1.51714,-0.50042 -2.27344,-0.75781 -1.54888,-0.52743 -3.15503,-0.87337 -4.69726,-1.41992 -0.86249,-0.30565 -1.70308,-0.67325 -2.57618,-0.94727 -0.90054,-0.28248 -1.82969,-0.46376 -2.72656,-0.75781 -0.92504,-0.30319 -1.80841,-0.72511 -2.72851,-1.04297 -0.84615,-0.29231 -1.72001,-0.49627 -2.57618,-0.75781 -0.8651,-0.26423 -1.7114,-0.58624 -2.57617,-0.85156 -0.85582,-0.26257 -1.72895,-0.46868 -2.57617,-0.75782 -0.82127,-0.28025 -1.61326,-0.63734 -2.42383,-0.94726 -1.68118,-0.64267 -3.43227,-1.07953 -5.15234,-1.60938 -0.9104,-0.28044 -1.81363,-0.58819 -2.72852,-0.85351 -1.89893,-0.55094 -3.84419,-0.92235 -5.75781,-1.41993 -2.70153,-0.70242 -5.33286,-1.65278 -8.03125,-2.36718 -1.6949,-0.44871 -3.4153,-0.80486 -5.15234,-1.04297 -1.01351,-0.13909 -2.03562,-0.23757 -3.03125,-0.47266 -0.87132,-0.20564 -1.71496,-0.51327 -2.57618,-0.75781 -1.73979,-0.49402 -3.54272,-0.72879 -5.30468,-1.13672 -1.72797,-0.40006 -3.4155,-0.96674 -5.15235,-1.32617 -1.80779,-0.37425 -3.65851,-0.52241 -5.45508,-0.94727 -0.86296,-0.20409 -1.71034,-0.47048 -2.57617,-0.66211 -0.85256,-0.18859 -1.71978,-0.30415 -2.57617,-0.47461 -0.86249,-0.17162 -1.71305,-0.39979 -2.57617,-0.56835 -0.76004,-0.14816 -1.53179,-0.24967 -2.27344,-0.47266 -0.77524,-0.23286 -1.50642,-0.595 -2.27344,-0.85352 -0.79411,-0.26778 -1.62051,-0.42324 -2.42382,-0.66211 -0.82132,-0.24412 -1.6137,-0.57458 -2.42383,-0.85351 -1.73882,-0.59883 -3.55027,-0.96419 -5.30469,-1.51563 -0.97388,-0.3061 -1.92851,-0.66835 -2.87891,-1.04101 -1.79113,-0.70235 -3.57034,-1.44066 -5.30468,-2.27344 -1.55666,-0.74744 -3.08026,-1.5718 -4.69727,-2.17773 -1.63145,-0.61134 -3.33807,-0.99281 -5,-1.51563 -0.86283,-0.27144 -1.71331,-0.58019 -2.57617,-0.85156 -0.90883,-0.28581 -1.83228,-0.53037 -2.72852,-0.85352 -0.87145,-0.31423 -1.71421,-0.70161 -2.57617,-1.04101 -2.50001,-0.98438 -5.14069,-1.55079 -7.72851,-2.27344 -1.62232,-0.45301 -3.22706,-0.96778 -4.84961,-1.41992 -1.70134,-0.47411 -3.42181,-0.87942 -5.15235,-1.23242 -0.80687,-0.16475 -1.61517,-0.31694 -2.42382,-0.47266 -1.58339,-0.30455 -3.17028,-0.61889 -4.69727,-1.13672 -0.71119,-0.24117 -1.4068,-0.52613 -2.12109,-0.75781 -0.80559,-0.26147 -1.63463,-0.45545 -2.42579,-0.75781 -0.82192,-0.31408 -1.59639,-0.74363 -2.42382,-1.04297 -0.83448,-0.30165 -1.71047,-0.46709 -2.57618,-0.66211 -1.90746,-0.42939 -3.78269,-1.00284 -5.60742,-1.70508 -1.91627,-0.7375 -3.78222,-1.61825 -5.75781,-2.17773 -0.90821,-0.2572 -1.83769,-0.44563 -2.72852,-0.75782 -1.02941,-0.36068 -1.99762,-0.88199 -3.03125,-1.23047 -0.79414,-0.2677 -1.61873,-0.43124 -2.42382,-0.66406 -0.86903,-0.25119 -1.71249,-0.58246 -2.57618,-0.85156 -1.74035,-0.54195 -3.55258,-0.82353 -5.30468,-1.32617 -1.67512,-0.48057 -3.29338,-1.163 -5,-1.51563 -0.75233,-0.15549 -1.51685,-0.24586 -2.27344,-0.3789 -1.68383,-0.29639 -3.3229,-0.8045 -5,-1.13672 -1.71359,-0.33959 -3.46476,-0.49588 -5.15234,-0.94727 -0.81809,-0.21879 -1.61729,-0.50572 -2.42579,-0.75781 -2.53289,-0.78935 -5.15916,-1.23342 -7.72851,-1.89453 -2.58461,-0.66505 -5.11354,-1.55077 -7.72852,-2.08399 -0.95861,-0.19559 -1.92679,-0.34347 -2.8789,-0.56836 -1.92121,-0.45407 -3.75317,-1.21513 -5.60743,-1.89257 -1.79022,-0.65405 -3.60896,-1.2312 -5.45507,-1.70508 -0.96138,-0.24677 -1.93026,-0.46603 -2.87891,-0.75781 -0.96576,-0.29715 -1.90746,-0.66947 -2.87891,-0.94727 -1.04847,-0.30002 -2.12471,-0.48909 -3.18164,-0.75781 -2.16411,-0.55026 -4.22978,-1.4313 -6.36523,-2.08399 -1.05852,-0.32352 -2.13363,-0.59123 -3.18164,-0.94726 -0.96646,-0.32841 -1.90847,-0.73072 -2.88086,-1.04102 -1.0463,-0.33403 -2.12322,-0.56022 -3.18164,-0.85351 -2.10542,-0.58356 -4.12663,-1.43332 -6.21289,-2.08204 -1.1032,-0.34302 -2.22334,-0.62902 -3.33399,-0.94726 -2.1281,-0.60953 -4.22278,-1.33754 -6.365231,-1.89453 -1.007871,-0.26204 -2.023991,-0.48607 -3.029297,-0.75781 -1.115297,-0.30142 -2.214579,-0.66154 -3.333984,-0.94727 -2.256907,-0.57619 -4.588377,-0.84922 -6.820312,-1.51563 -1.171068,-0.34964 -2.307786,-0.80601 -3.484375,-1.13671 -1.198897,-0.33687 -2.430899,-0.54051 -3.636719,-0.85157 -1.174231,-0.303 -2.320949,-0.70734 -3.486328,-1.04296 -1.157016,-0.33306 -2.331816,-0.59918 -3.484375,-0.94727 -2.405484,-0.72661 -4.697165,-1.80564 -7.123047,-2.46094 -1.209778,-0.32678 -2.449267,-0.54686 -3.636719,-0.94726 -1.145159,-0.38612 -2.227305,-0.93632 -3.333984,-1.42188 -2.029901,-0.89057 -4.145323,-1.56793 -6.212891,-2.36719 -1.115524,-0.4312 -2.217293,-0.89799 -3.333984,-1.32617 -3.333838,-1.27831 -6.791284,-2.21068 -10.154297,-3.41015 -1.106113,-0.39451 -2.20159,-0.81849 -3.332031,-1.13672 -1.151418,-0.32406 -2.332552,-0.53598 -3.486328,-0.85157 -1.169779,-0.31993 -2.308575,-0.74394 -3.484376,-1.04101 -0.757433,-0.19143 -1.529572,-0.32949 -2.273437,-0.56836 -0.811412,-0.26041 -1.580864,-0.63709 -2.373047,-0.95117 -0.792182,-0.31423 -1.624401,-0.56824 -2.476562,-0.56446 -0.270484,0.001 -0.53764,0.0326 -0.802735,0.0781 z"
       transform="matrix(0.26458333,0,0,0.26458333,0,169)"
       id="path4004" />
    <path
       style="fill:none;stroke:#000000;stroke-width:0.99999994px;stroke-linecap:butt;stroke-linejoin:miter;stroke-opacity:1"
       d="m 459.97656,344.4707 c 0.015,-0.021 0.0277,-0.0437 0.043,-0.0645 0.18013,-0.2447 0.38547,-0.46985 0.59766,-0.6875 -0.1596,0.12277 -0.3219,0.24507 -0.44727,0.40234 -0.0838,0.10499 -0.13751,0.22788 -0.19336,0.34961 z"
       transform="matrix(0.26458333,0,0,0.26458333,0,169)"
       id="path4002" />
    <path
       style="fill:none;stroke:#000000;stroke-width:0.99999994px;stroke-linecap:butt;stroke-linejoin:miter;stroke-opacity:1"
       d="m 460.61719,343.71875 c 0.006,-0.005 0.0117,-0.009 0.0176,-0.0137 0.16509,-0.12733 0.32921,-0.26289 0.44335,-0.4375 0.0253,-0.0387 0.0492,-0.0771 0.0723,-0.11719 -0.11559,0.14109 -0.24328,0.27385 -0.37305,0.40234 -0.0546,0.054 -0.10655,0.11103 -0.16015,0.16602 z"
       transform="matrix(0.26458333,0,0,0.26458333,0,169)"
       id="path4000" />
    <path
       style="fill:none;stroke:#000000;stroke-width:0.99999994px;stroke-linecap:butt;stroke-linejoin:miter;stroke-opacity:1"
       d="m 461.15039,343.15039 c 0.0262,-0.032 0.0424,-0.0702 0.0664,-0.10351 -0.003,0.005 -0.009,0.007 -0.0117,0.0117 -0.02,0.0297 -0.0368,0.0607 -0.0547,0.0918 z"
       transform="matrix(0.26458333,0,0,0.26458333,0,169)"
       id="path3998" />
    <path
       style="fill:none;stroke:#000000;stroke-width:0.99999994px;stroke-linecap:butt;stroke-linejoin:miter;stroke-opacity:1"
       d="m 461.2168,343.04688 c 0.044,-0.0625 0.0954,-0.12104 0.16406,-0.15626 0.0729,-0.0355 0.15941,-0.0443 0.23047,-0.084 0.0355,-0.02 0.0669,-0.0481 0.082,-0.0859 0.008,-0.0185 0.013,-0.0397 0.0117,-0.0586 0,-0.0189 -0.008,-0.0415 -0.0195,-0.0566 -0.0125,-0.0151 -0.0259,-0.0257 -0.041,-0.0332 -0.0159,-0.006 -0.0358,-0.009 -0.0547,-0.008 -0.0367,0.002 -0.0712,0.0203 -0.0976,0.043 -0.0265,0.0242 -0.0493,0.0539 -0.0645,0.0879 -0.0178,0.0325 -0.0298,0.0656 -0.0449,0.0996 -0.0406,0.0931 -0.10702,0.17012 -0.16601,0.25196 z"
       transform="matrix(0.26458333,0,0,0.26458333,0,169)"
       id="path3996" />
    <path
       style="fill:none;stroke:#000000;stroke-width:0.99999994px;stroke-linecap:butt;stroke-linejoin:miter;stroke-opacity:1"
       d="m 428.28516,383.92188 c -0.11837,0.13348 -0.22801,0.27572 -0.31446,0.43164 -0.0868,0.15642 -0.14315,0.32549 -0.18164,0.5 0.18941,-0.29606 0.31202,-0.63234 0.4961,-0.93164 z"
       transform="matrix(0.26458333,0,0,0.26458333,0,169)"
       id="path3994" />
    <path
       style="fill:none;stroke:#000000;stroke-width:0.99999994px;stroke-linecap:butt;stroke-linejoin:miter;stroke-opacity:1"
       d="m 427.78906,384.85352 c -0.0179,0.0279 -0.0273,0.061 -0.0469,0.0879 -0.0794,0.10922 -0.17196,0.209 -0.25586,0.31445 -0.0843,0.10583 -0.16105,0.22035 -0.19922,0.34961 -0.0113,0.031 -0.0184,0.0597 -0.0195,0.0937 0,0.0325 0.004,0.0655 0.0195,0.0957 0.0181,0.0393 0.0521,0.069 0.0918,0.0879 0.0397,0.0151 0.0846,0.0193 0.12695,0.0117 0.0423,-0.009 0.0812,-0.0302 0.11523,-0.0566 0.0333,-0.028 0.0612,-0.063 0.0801,-0.10156 0.0412,-0.0771 0.052,-0.1654 0.0527,-0.25195 0,-0.0869 -0.009,-0.17322 -0.0117,-0.25977 -0.003,-0.12494 0.02,-0.24918 0.0469,-0.37109 z"
       transform="matrix(0.26458333,0,0,0.26458333,0,169)"
       id="path3734" />
    <path
       style="fill:none;stroke:#000000;stroke-width:0.26458332px;stroke-linecap:butt;stroke-linejoin:miter;stroke-opacity:1"
       d="m 121.59335,259.42189 c -0.40095,-0.008 -0.80253,-5.3e-4 -1.20284,-0.0247 -0.0214,-0.001 -0.022,-0.0388 -0.0401,-0.0501 -0.0155,-0.15173 -0.11289,-0.0204 -0.16038,-0.0501 -0.0311,-0.0194 -0.0491,-0.0558 -0.0802,-0.0752 -0.036,-0.0225 -0.11755,-0.0117 -0.16038,-0.0251 -0.0495,-0.0154 -0.28991,-0.0874 -0.32076,-0.10023 -0.10183,-0.0424 -0.18076,-0.12859 -0.28066,-0.17542 -0.0371,-0.0174 -0.0812,-0.0128 -0.12028,-0.025 -0.0681,-0.0213 -0.13171,-0.0561 -0.20047,-0.0752 -0.0521,-0.0145 -0.10927,-0.007 -0.16038,-0.0251 -0.17846,-0.062 -0.3452,-0.18183 -0.52123,-0.2506 -0.0382,-0.0149 -0.0832,-0.008 -0.12029,-0.025 -0.0713,-0.0335 -0.13133,-0.0875 -0.20047,-0.1253 -0.0381,-0.0208 -0.0822,-0.0293 -0.12028,-0.0501 -0.57024,-0.31184 0.0641,0.0134 -0.32076,-0.20047 -0.24199,-0.13444 -0.45329,-0.26904 -0.68161,-0.426 -0.0328,-0.0226 -0.34992,-0.21614 -0.36085,-0.22554 -0.0487,-0.0418 -0.0716,-0.10852 -0.12029,-0.15035 -0.0598,-0.0514 -0.136,-0.08 -0.20047,-0.1253 -0.0982,-0.069 -0.19503,-0.14143 -0.28066,-0.22553 -0.0458,-0.045 -0.0765,-0.10343 -0.12028,-0.15035 -0.31398,-0.33641 -0.0218,0.004 -0.28067,-0.2506 -0.15318,-0.15045 -0.2945,-0.31912 -0.44104,-0.47612 -0.0895,-0.0959 -0.19444,-0.17685 -0.28066,-0.27565 -0.0326,-0.0374 -0.0458,-0.0895 -0.0802,-0.1253 -0.0533,-0.0556 -0.20342,-0.15823 -0.28066,-0.20047 -0.0655,-0.0359 -0.13088,-0.073 -0.20047,-0.10024 -0.0382,-0.0149 -0.0844,-0.005 -0.12029,-0.025 -0.0733,-0.0401 -0.12745,-0.10979 -0.20047,-0.15036 -0.049,-0.0272 -0.10868,-0.0286 -0.16038,-0.0501 -0.17626,-0.0735 -0.3434,-0.18113 -0.52123,-0.2506 -0.27455,-0.10724 0.0643,0.11539 -0.32075,-0.12529 -0.0443,-0.0277 -0.076,-0.0726 -0.12029,-0.10024 -0.10334,-0.0646 -0.21384,-0.11694 -0.32075,-0.17541 -0.0656,-0.0358 -0.13283,-0.0685 -0.20048,-0.10024 -0.0393,-0.0184 -0.0849,-0.0249 -0.12028,-0.0501 -0.18359,-0.13113 -0.26108,-0.26486 -0.48114,-0.35082 -0.0382,-0.0149 -0.0821,-0.0102 -0.12028,-0.0251 -0.0696,-0.0272 -0.12989,-0.0757 -0.20048,-0.10024 -0.0511,-0.0178 -0.10997,-0.005 -0.16037,-0.025 -0.0587,-0.0229 -0.10481,-0.0705 -0.16038,-0.10024 -0.0936,-0.0501 -0.18653,-0.10133 -0.28066,-0.15036 -0.077,-0.0401 -0.15765,-0.0743 -0.24057,-0.10023 -0.0255,-0.008 -0.0535,0 -0.0802,0 -0.0535,-0.0167 -0.10923,-0.0273 -0.16038,-0.0501 -0.0998,-0.0445 -0.18089,-0.13087 -0.28066,-0.17541 -0.0374,-0.0167 -0.0829,-0.008 -0.12029,-0.0251 -0.17983,-0.0803 -0.36223,-0.25995 -0.52122,-0.37589 -0.11128,-0.0811 -0.27087,-0.15401 -0.40095,-0.20047 -0.0386,-0.0138 -0.0855,-0.003 -0.12028,-0.0251 -0.0621,-0.0388 -0.0982,-0.11151 -0.16038,-0.15035 -0.0347,-0.0217 -0.0821,-0.0102 -0.12029,-0.0251 -0.19282,-0.0753 -0.37019,-0.19601 -0.56132,-0.27565 -0.0517,-0.0215 -0.11156,-0.0226 -0.16038,-0.0501 -0.38614,-0.2172 -0.0963,-0.11986 -0.40095,-0.27565 -0.012,-0.006 -0.43466,-0.18856 -0.48113,-0.22553 -0.0906,-0.0721 -0.15244,-0.17548 -0.24057,-0.25059 -0.06,-0.0511 -0.13365,-0.0835 -0.20047,-0.1253 -0.0936,-0.0585 -0.18494,-0.12057 -0.28066,-0.17541 -0.0648,-0.0371 -0.13875,-0.0581 -0.20048,-0.10024 -0.0862,-0.0588 -0.15955,-0.13465 -0.24056,-0.20047 -0.273,-0.22181 -0.5312,-0.45652 -0.84199,-0.62648 -0.33641,-0.18397 -0.69069,-0.34897 -1.04246,-0.50118 -0.18507,-0.0801 -0.38033,-0.13665 -0.56133,-0.22553 -0.61503,-0.30203 0.2076,-0.006 -0.60141,-0.27565 -0.25625,-0.0854 -0.51214,-0.17163 -0.7618,-0.27565 -0.21796,-0.0908 -0.42423,-0.21018 -0.64151,-0.30071 -0.17903,-0.0746 -0.40297,-0.10676 -0.56133,-0.22553 -0.37425,-0.28069 -0.0974,-0.16109 -0.44104,-0.37589 -0.09,-0.0563 -0.19278,-0.0909 -0.28066,-0.15036 -0.678905,-0.45967 0.36609,0.13457 -0.48114,-0.35082 -0.06482,-0.0371 -0.138742,-0.0582 -0.200472,-0.10024 -0.08624,-0.0588 -0.156604,-0.13846 -0.240567,-0.20047 -0.06339,-0.0468 -0.133649,-0.0835 -0.200472,-0.1253 -0.06683,-0.0585 -0.129913,-0.12151 -0.200475,-0.17541 -0.0501,-0.0383 -0.111948,-0.0599 -0.160377,-0.10024 -0.0726,-0.0605 -0.127873,-0.13997 -0.200475,-0.20047 -0.121073,-0.1009 -0.267295,-0.16706 -0.400944,-0.25059 -0.231868,-0.14492 -0.156504,-0.0932 -0.441042,-0.30071 -0.727702,-0.53062 0.381585,0.26017 -0.441039,-0.30071 -0.269859,-0.184 -0.129577,-0.13408 -0.441042,-0.27565 -0.194471,-0.0884 -0.405162,-0.14376 -0.601419,-0.22553 -0.188934,-0.0787 -0.368096,-0.20856 -0.561324,-0.27566 -0.05111,-0.0178 -0.111715,-0.001 -0.160377,-0.025 -0.07513,-0.0365 -0.127455,-0.10979 -0.200475,-0.15036 -0.04896,-0.0272 -0.111416,-0.0229 -0.160377,-0.0501 -0.175197,-0.0973 -0.29604,-0.26819 -0.481137,-0.35082 -0.0374,-0.0167 -0.08289,-0.008 -0.120282,-0.0251 -0.05757,-0.0257 -0.102812,-0.0745 -0.16038,-0.10024 -0.0374,-0.0167 -0.08289,-0.008 -0.120282,-0.025 -0.151387,-0.0676 -0.289656,-0.18301 -0.441042,-0.2506 -0.0374,-0.0167 -0.08289,-0.008 -0.120283,-0.025 -0.05757,-0.0257 -0.104465,-0.0711 -0.160379,-0.10024 -0.02484,-0.0129 -0.05535,-0.0121 -0.08019,-0.0251 -0.215329,-0.11215 -0.448059,-0.25989 -0.641512,-0.40095 -0.05388,-0.0393 -0.138107,-0.0846 -0.200475,-0.10023 -0.02593,-0.006 -0.05516,0.009 -0.08019,0 -0.04427,-0.0166 -0.07601,-0.0586 -0.120283,-0.0752 -0.02503,-0.009 -0.05516,0.009 -0.08019,0 -0.04427,-0.0166 -0.07747,-0.0551 -0.120282,-0.0752 -0.01209,-0.006 -0.02776,0.005 -0.04009,0 -0.06963,-0.029 -0.152559,-0.0654 -0.200475,-0.12529 -0.01566,-0.0196 0,-0.0501 0,-0.0752"
       id="path3738"
       inkscape:connector-curvature="0" />
    <path
       style="fill:none;stroke:#000000;stroke-width:0.26458332px;stroke-linecap:butt;stroke-linejoin:miter;stroke-opacity:1"
       d="m 86.069529,239.90116 c 0.187108,0.1253 0.383873,0.23725 0.561324,0.37589 0.03908,0.0305 0.05102,0.0852 0.08019,0.12529 0.126563,0.17403 0.289306,0.40228 0.441042,0.5513 0.131987,0.12963 0.299233,0.21182 0.441039,0.32577 0.09309,0.0748 0.163542,0.18739 0.240567,0.27565 0.07614,0.0872 0.168235,0.16018 0.24057,0.25059 0.04429,0.0554 0.07191,0.12359 0.120282,0.17542 0.172797,0.18513 0.150865,0.0797 0.360852,0.22553 0.120377,0.0836 0.208169,0.20689 0.320757,0.30071 0.272418,0.22702 0.594127,0.39574 0.882081,0.60142 0.04247,0.0303 0.07781,0.0699 0.120285,0.10023 0.140809,0.10058 0.299482,0.17612 0.441039,0.27566 0.159518,0.11215 0.309536,0.23043 0.481137,0.32576 0.138912,0.0772 0.41442,0.22465 0.561324,0.27565 0.05111,0.0178 0.108244,0.0106 0.160377,0.0251 0.249947,0.0694 0.435962,0.204 0.641514,0.35083 0.0513,0.0366 0.111237,0.0608 0.16038,0.10023 0.04513,0.0363 0.07515,0.089 0.120282,0.1253 0.04914,0.0395 0.10908,0.0636 0.16038,0.10024 0.08494,0.0607 0.156224,0.13897 0.240567,0.20047 0.0382,0.0279 0.08396,0.0449 0.120283,0.0752 0.0011,0.001 0.169508,0.18112 0.200474,0.20047 0.09729,0.0608 0.22347,0.0896 0.320757,0.15036 0.07083,0.0443 0.129638,0.10608 0.200473,0.15035 0.02673,0.0167 0.0605,0.0255 0.08019,0.0501 0.03548,0.0443 0.04471,0.106 0.08019,0.15035 0.0064,0.008 0.257234,0.21089 0.280662,0.22554 0.01132,0.007 0.02701,-0.003 0.04009,0 0.02742,0.006 0.05219,0.025 0.08019,0.025 0.04364,0 -0.04846,-0.0856 -0.08019,-0.12529 -0.01773,-0.0222 -0.02236,-0.053 -0.04009,-0.0752 -0.03617,-0.0452 -0.08908,-0.0765 -0.120284,-0.1253 -0.02363,-0.0369 -0.01712,-0.088 -0.0401,-0.12529 -0.04485,-0.0729 -0.111983,-0.1299 -0.160378,-0.20048 -0.281535,-0.41057 0.20922,0.18635 -0.240569,-0.37588 -0.08565,-0.10707 -0.187108,-0.20047 -0.280662,-0.30071 -0.189479,-0.20302 -0.355682,-0.38972 -0.601419,-0.52624 -0.230093,-0.12783 -0.511697,-0.29774 -0.761797,-0.37589 -0.05165,-0.0161 -0.108331,-0.0103 -0.16038,-0.0251 -0.09556,-0.0271 -0.186507,-0.0685 -0.280662,-0.10023 -0.07962,-0.0268 -0.163851,-0.0409 -0.240567,-0.0752 -0.111278,-0.0497 -0.207679,-0.12998 -0.320757,-0.17542 -0.076,-0.0305 -0.163872,-0.0213 -0.240567,-0.0501 -0.125227,-0.047 -0.236863,-0.12528 -0.360852,-0.17542 -0.103846,-0.042 -0.221406,-0.0485 -0.320757,-0.10023 -0.143846,-0.0749 -0.265565,-0.18634 -0.400944,-0.27566 -0.605951,-0.39975 -1.123058,-0.7773 -1.603785,-1.32813"
       id="path3740"
       inkscape:connector-curvature="0" />
    <path
       style="fill:none;stroke:#000000;stroke-width:0.26458332px;stroke-linecap:butt;stroke-linejoin:miter;stroke-opacity:1"
       d="m 86.069529,239.90116 c -0.120285,0.0501 -0.233783,0.12148 -0.36085,0.15035 -0.03074,0.007 -0.0501,-0.0407 -0.08019,-0.0501 -0.06127,-0.0192 -0.27054,-0.0206 -0.320758,-0.0251 -0.19187,-0.0171 -0.07894,-0.0499 -0.320757,-0.10024 -0.05233,-0.0109 -0.106918,0 -0.160379,0 -0.21499,0 -0.267584,0.008 -0.481135,-0.0251 -0.161858,-0.0253 -0.32477,-0.0514 -0.481134,-0.10024 -0.05635,-0.0176 -0.1031,-0.0609 -0.16038,-0.0752 -0.732967,-0.18324 0.307798,0.16397 -0.521229,-0.0752 -0.08347,-0.0241 -0.15526,-0.0838 -0.240567,-0.10024 -0.09187,-0.0177 -0.187201,0.004 -0.280662,0 -0.249957,-0.0112 -0.513358,-0.0191 -0.761799,-0.0501 -0.214759,-0.0268 -0.430278,-0.0531 -0.641514,-0.10024 -0.123669,-0.0276 -0.522557,-0.17728 -0.601419,-0.20047 -0.497133,-0.14622 -1.018146,-0.19541 -1.523595,-0.30071 -0.267319,-0.0557 -0.497335,-0.19049 -0.761796,-0.25059 -0.06567,-0.0149 -0.134803,-0.0101 -0.200473,-0.0251 -0.08193,-0.0186 -0.159752,-0.0522 -0.240569,-0.0752 -0.426675,-0.12122 -0.855642,-0.23211 -1.283026,-0.35083 -0.05397,-0.015 -0.105547,-0.0387 -0.16038,-0.0501 -0.22021,-0.0459 -0.161213,-0.003 -0.360851,-0.0501 -0.276212,-0.0647 -0.559996,-0.13625 -0.841987,-0.17541 -0.119427,-0.0166 -0.241003,-0.0118 -0.360852,-0.0251 -0.107563,-0.0118 -0.213376,-0.0367 -0.320757,-0.0501 -0.732628,-0.0916 0.239065,0.0531 -0.641511,-0.0501 -0.09439,-0.0111 -0.186603,-0.0366 -0.280662,-0.0501 -0.0798,-0.0115 -0.161952,-0.007 -0.24057,-0.0251 -0.06959,-0.0158 -0.131233,-0.0579 -0.200472,-0.0752 -0.130667,-0.0327 -0.269089,-0.0226 -0.400947,-0.0501 -0.05483,-0.0114 -0.105545,-0.0387 -0.160377,-0.0501 -0.131858,-0.0275 -0.268565,-0.0253 -0.400947,-0.0501 -0.0677,-0.0127 -0.132771,-0.0374 -0.200472,-0.0501 -0.528706,-0.0991 -1.067292,-0.1264 -1.603785,-0.15035 -0.09346,-0.004 -0.187537,0.009 -0.280662,0 -0.163071,-0.0157 -0.322601,-0.059 -0.481135,-0.10024 -0.0813,-0.0212 -0.157749,-0.0611 -0.240567,-0.0752 -0.239768,-0.0409 -0.162435,0.0495 -0.400947,-0.025 -0.07131,-0.0223 -0.128487,-0.0802 -0.200472,-0.10024 -0.05151,-0.0143 -0.108331,0.0122 -0.16038,0 -0.05748,-0.0135 -0.104023,-0.0576 -0.160377,-0.0752 -0.05165,-0.0161 -0.108733,-0.009 -0.16038,-0.025 -0.05635,-0.0176 -0.102893,-0.0617 -0.160377,-0.0752 -0.05205,-0.0122 -0.108331,0.0122 -0.16038,0 -0.05748,-0.0135 -0.102576,-0.0631 -0.160377,-0.0752 -0.06542,-0.0136 -0.136088,0.0179 -0.200475,0 -0.121483,-0.0337 -0.206591,-0.14696 -0.320757,-0.20047 -0.101425,-0.0475 -0.211693,-0.0747 -0.320754,-0.10024 -0.09253,-0.0217 -0.186005,-0.0417 -0.280665,-0.0501 -0.05325,-0.005 -0.107749,0.009 -0.160377,0 -0.42224,-0.0754 0.171307,-0.0323 -0.240567,-0.0752 -0.09476,-0.01 -0.27201,-0.007 -0.360852,-0.0251 -0.334658,-0.13944 0.08687,0.0181 -0.240567,-0.0501 -0.125505,-0.0261 -0.226047,-0.12529 -0.360852,-0.12529 -0.04095,0 -0.07933,0.025 -0.120285,0.025 -0.04095,0 -0.07955,-0.0208 -0.120282,-0.025 -0.03988,-0.004 -0.08274,0.0141 -0.120285,0 -0.03431,-0.0129 -0.04588,-0.0623 -0.08019,-0.0752 -0.03754,-0.0141 -0.0804,0.004 -0.120282,0 -0.09186,-0.01 -0.278471,-0.0244 -0.360852,-0.0501 -0.13807,-0.0432 -0.265131,-0.10185 -0.400947,-0.15035 -0.07714,-0.0276 -0.162385,-0.0257 -0.240567,-0.0501 -0.04146,-0.013 -0.07814,-0.0396 -0.120282,-0.0501 -0.02593,-0.006 -0.05378,0.004 -0.08019,0 -0.0814,-0.0127 -0.159705,-0.0333 -0.240567,-0.0501 -0.05897,-0.0123 -0.144881,0.0231 -0.200475,0 -0.0289,-0.012 -0.175469,-0.0794 -0.200472,-0.10023 -0.02815,-0.0235 -0.04701,-0.0596 -0.08019,-0.0752 -0.02421,-0.0113 -0.05378,0.004 -0.08019,0 -0.02767,-0.004 -0.05219,-0.0251 -0.08019,-0.0251 -0.165799,0 -0.03713,0.0789 -0.16038,-0.0752 -0.06804,-0.085 -0.122357,-0.0726 -0.0401,-0.17542"
       id="path3752"
       inkscape:connector-curvature="0" />
    <path
       style="fill:none;stroke:#000000;stroke-width:0.26458332px;stroke-linecap:butt;stroke-linejoin:miter;stroke-opacity:1"
       d="m 62.574079,235.18991 c 0.120288,-0.0835 0.251616,-0.15297 0.360863,-0.25046 0.01995,-0.0178 -0.05468,-0.008 -0.08019,0 -0.119685,0.0374 -0.160195,0.21571 -0.280676,0.25046 -0.271571,0.0783 -0.56202,0.0615 -0.841975,0.10037 -0.08113,0.0113 -0.159822,0.0364 -0.240567,0.0501 -0.324909,0.0554 -0.08029,-0.006 -0.44104,0.0501 -0.08093,0.0126 -0.159033,0.0423 -0.240569,0.0501 -0.271648,0.0261 -0.569426,0 -0.841987,0 -0.319881,0 -0.642646,-0.0125 -0.962271,0 -0.12048,0.005 -0.240358,0.0206 -0.360849,0.0251 -0.106849,0.004 -0.214484,-0.0117 -0.320757,0 -0.122126,0.0135 -0.239294,0.0573 -0.360852,0.0752 -0.106103,0.0156 -0.214654,0.009 -0.320757,0.025 -0.215561,0.0317 -0.427675,0.0835 -0.641514,0.1253 -0.215559,0.0421 -0.424871,0.11425 -0.641514,0.15035 -0.19843,0.0331 -0.401804,0.0252 -0.601419,0.0501 -0.556035,0.0695 -0.09718,0.0337 -0.561324,0.0752 -0.10682,0.01 -0.214972,0.007 -0.320757,0.0251 -0.09553,0.0159 -0.18532,0.0582 -0.280662,0.0752 -0.09246,0.0165 -0.187698,0.0117 -0.280662,0.0251 -0.188122,0.0271 -0.375822,0.0588 -0.561325,0.10023 -0.126465,0.0282 -0.40849,0.13748 -0.521229,0.17542 -0.06401,0.0215 -0.538347,0.16618 -0.561326,0.17541 -0.823225,0.33076 0.387963,-0.0804 -0.52123,0.22553 -0.305281,0.10275 -0.621564,0.1561 -0.922176,0.27566 -0.06942,0.0276 -0.130516,0.074 -0.200472,0.10023 -0.0645,0.0242 -0.134728,0.0296 -0.200472,0.0501 -0.06812,0.0213 -0.131236,0.0579 -0.200475,0.0752 -0.06533,0.0163 -0.134543,0.0113 -0.200472,0.0251 -0.175024,0.0365 -0.34876,0.10244 -0.521229,0.15035 -0.06637,0.0184 -0.135403,0.0275 -0.200475,0.0501 -0.204136,0.0709 -0.391559,0.19097 -0.601419,0.25059 -0.221575,0.063 -0.45689,0.0993 -0.681606,0.15035 -0.294021,0.0668 -0.58805,0.13365 -0.882084,0.20048 -0.176329,0.0401 -0.344744,0.11096 -0.521229,0.15035 -0.07869,0.0176 -0.161396,0.01 -0.240567,0.0251 -0.09511,0.0183 -0.185553,0.0569 -0.280662,0.0752 -0.07578,0.0146 -0.461079,0.0414 -0.52123,0.0501 -0.460883,0.0665 -0.01982,0.0501 -0.481136,0.0501"
       id="path3758"
       inkscape:connector-curvature="0" />
    <path
       style="fill:none;stroke:#000000;stroke-width:0.26458332px;stroke-linecap:butt;stroke-linejoin:miter;stroke-opacity:1"
       d="m 62.574079,235.18991 c -0.213833,-0.31737 -0.410334,-0.64714 -0.641501,-0.95211 -0.01487,-0.0196 -0.14497,0.0135 -0.200474,0.025 -0.123759,0.0258 -0.234868,0.0871 -0.360852,0.10024 -0.134247,0.014 -0.26878,-0.0222 -0.400945,0.025 -0.04453,0.0159 -0.08019,0.0501 -0.120284,0.0752 -0.06682,0.008 -0.134544,0.0113 -0.200473,0.0251 -0.293862,0.0612 -0.02159,0.054 -0.360852,0.0752 -0.431482,0.027 0.06545,-0.0533 -0.561324,0.025 -0.08128,0.0102 -0.159639,0.0375 -0.240567,0.0501 -0.133075,0.0208 -0.268242,0.0271 -0.400947,0.0501 -0.108198,0.0188 -0.212108,0.0592 -0.320757,0.0752 -0.11929,0.0175 -0.241003,0.0119 -0.360852,0.0251 -0.107563,0.0118 -0.213193,0.0383 -0.320757,0.0501 -0.226441,0.025 -0.455165,0.0251 -0.681606,0.0501 -0.349105,0.0385 -0.693357,0.11185 -1.042461,0.15035 -0.463534,0.0511 -0.202139,-0.001 -0.721701,0.0501 -0.120854,0.0119 -0.239946,0.0388 -0.360852,0.0501 -0.702093,0.0658 -1.420564,0.0251 -2.125015,0.0251 -1.09592,0 -2.19184,0 -3.287757,0 -0.545992,0 -1.098553,-0.0243 -1.64388,0 -0.628539,0.0281 -0.04306,0.006 -0.561324,0.0752 -0.327803,0.0439 -0.290007,0.008 -0.601419,0.0501 -0.09419,0.0126 -0.186603,0.0366 -0.280662,0.0501 -0.146445,0.0211 -0.293436,0.0399 -0.441042,0.0501 -0.142372,0.01 -0.300588,-0.0251 -0.441039,0 -0.05514,0.01 -0.105241,0.0403 -0.16038,0.0501 -0.418426,0.0747 0.356989,-0.1544 -0.36085,0.0251 -0.05728,0.0143 -0.103491,0.0594 -0.160379,0.0752 -0.117007,0.0325 -0.239705,0.0417 -0.360852,0.0501 -0.251116,0.0174 -0.509813,0 -0.761797,0 -0.08668,0 -0.197072,-0.0209 -0.280662,0 -0.04214,0.0105 -0.07814,0.0396 -0.120285,0.0501 -0.07822,0.0196 -0.1612,0.0109 -0.240567,0.0251 -0.175953,0.0314 -0.340989,0.09 -0.521229,0.10024 -0.345323,0.0196 -0.697992,-0.0308 -1.042461,0 -0.303771,0.0271 -0.02977,0.008 -0.280662,0.0752 -0.150826,0.0404 -0.328446,0.0684 -0.481134,0.10024 -0.105942,0.0221 -0.218845,0.0137 -0.320757,0.0501 -0.04453,0.0159 -0.07664,0.057 -0.120285,0.0752 -0.0378,0.0157 -0.08119,0.0128 -0.120282,0.025 -0.04146,0.013 -0.07814,0.0396 -0.120285,0.0501 -0.104077,0.026 -0.509701,0 -0.641514,0"
       id="path3760"
       inkscape:connector-curvature="0" />
    <path
       style="fill:none;stroke:#000000;stroke-width:0.26458332px;stroke-linecap:butt;stroke-linejoin:miter;stroke-opacity:1"
       d="m 39.800355,236.14217 c 0.04009,4e-5 0.120285,0.0402 0.120285,1.2e-4 0,-0.0434 -0.07685,-0.0501 -0.120285,-0.0501 -0.01667,-2e-5 0.01323,0.0601 0,0.05 -0.286102,-0.21855 -0.509656,-0.53801 -0.841986,-0.67647 -0.03781,-0.0157 -0.08072,-0.0145 -0.120285,-0.0251 -0.229434,-0.0615 -0.08822,-0.0461 -0.320757,-0.0752 -0.08,-0.01 -0.162351,-0.006 -0.240567,-0.0251 -0.05728,-0.0143 -0.106918,-0.0501 -0.160377,-0.0752 -0.08019,-0.008 -0.161949,-0.007 -0.240568,-0.0251 -0.0696,-0.0158 -0.132924,-0.0522 -0.200474,-0.0752 -0.07952,-0.0271 -0.161637,-0.0464 -0.240567,-0.0752 -0.141145,-0.0515 -0.377315,-0.17049 -0.52123,-0.20047 -0.104992,-0.0219 -0.215183,-0.006 -0.320757,-0.0251 -0.239286,-0.0427 -0.250081,-0.10321 -0.481136,-0.17542 -0.195456,-0.0611 -0.401447,-0.0812 -0.60142,-0.12529 -0.762309,-0.16816 0.09461,0.0254 -0.601419,-0.17542 -0.304583,-0.0879 -0.624681,-0.10721 -0.922176,-0.22553 -0.138842,-0.0552 -0.274232,-0.12128 -0.400944,-0.20047 -0.08416,-0.0526 -0.152837,-0.12902 -0.240567,-0.17542 -0.08782,-0.0464 -0.18642,-0.0688 -0.280662,-0.10023 -0.343702,-0.11457 -0.697042,-0.19277 -1.042461,-0.30071 -0.430604,-0.13456 -0.27105,-0.11149 -0.681609,-0.22553 -0.373023,-0.10362 -0.752748,-0.18512 -1.122648,-0.30071 -0.431745,-0.13492 -0.128387,-0.0572 -0.52123,-0.20047 -0.212629,-0.0775 -0.4309,-0.11671 -0.641514,-0.20048 -0.297264,-0.11823 -0.572399,-0.28791 -0.882081,-0.37589 -0.07879,-0.0224 -0.161774,-0.0277 -0.240567,-0.0501 -0.06865,-0.0195 -0.132355,-0.0539 -0.200475,-0.0752 -0.273984,-0.0856 -0.559527,-0.12834 -0.841986,-0.17541 -0.413678,-0.069 -0.841281,-0.10002 -1.242932,-0.22554 -0.09508,-0.0297 -0.527469,-0.19019 -0.601419,-0.22553 -0.124149,-0.0593 -0.234959,-0.14493 -0.360852,-0.20047 -0.193338,-0.0853 -0.404187,-0.12462 -0.601419,-0.20048 -0.23986,-0.0923 -0.48759,-0.16923 -0.721703,-0.27564 -0.06802,-0.0309 -0.129162,-0.078 -0.200473,-0.10024 -0.06428,-0.0201 -0.136194,-0.005 -0.200473,-0.0251 -0.154137,-0.0482 -0.287987,-0.14896 -0.441041,-0.20047 -0.09179,-0.0309 -0.190265,-0.0404 -0.280662,-0.0752 -0.238265,-0.1241 -0.23335,-0.13023 -0.481135,-0.22553 -0.251532,-0.0967 -0.521815,-0.17572 -0.761797,-0.30071 -0.230277,-0.11994 -0.440608,-0.26634 -0.681609,-0.37589 -0.327715,-0.14896 -0.644384,-0.30582 -0.96227,-0.47612 -0.09355,-0.0501 -0.194299,-0.0887 -0.280662,-0.15035 -0.102057,-0.0729 -0.181253,-0.17413 -0.280663,-0.2506 -0.07495,-0.0576 -0.160378,-0.10023 -0.240567,-0.15035 -0.380294,-0.23768 -0.780536,-0.44746 -1.202839,-0.60142 -0.102444,-0.0374 -0.425215,-0.13035 -0.52123,-0.15036 -0.105941,-0.0221 -0.215395,-0.0254 -0.320756,-0.0501 -0.346515,-0.0812 -0.276511,-0.10571 -0.601419,-0.20048 -0.105424,-0.0307 -0.21483,-0.0462 -0.320757,-0.0752 -0.362962,-0.0992 -0.719173,-0.22844 -1.082554,-0.32577 -0.410613,-0.10999 -0.830225,-0.19753 -1.242933,-0.30071 -0.133649,-0.0334 -0.276209,-0.0418 -0.400946,-0.10024 -0.146854,-0.0688 -0.254514,-0.20592 -0.400946,-0.27565 -0.137986,-0.0657 -0.296385,-0.076 -0.441041,-0.1253 -0.446399,-0.15218 -0.866179,-0.37701 -1.323122,-0.50118 -0.316178,-0.0859 -0.641514,-0.13365 -0.9622706,-0.20047 -0.1603783,-0.0334 -0.3207568,-0.0668 -0.4811353,-0.10024 -0.1603783,-0.0501 -0.3169431,-0.11466 -0.4811353,-0.15035 -0.1445826,-0.0314 -0.2951845,-0.0253 -0.4410405,-0.0501 -0.1486191,-0.0253 -0.293447,-0.0695 -0.4410406,-0.10024 -0.1331196,-0.0277 -0.270618,-0.0364 -0.4009461,-0.0752 -0.1601687,-0.0477 -0.8020804,-0.35395 -0.9622706,-0.32577 -0.7927996,0.13945 -1.5503249,0.43405 -2.3254874,0.65108 -0.2989355,0.18837 -0.3532505,0.60905 -0.6014187,0.85279 -0.096801,0.0951 -0.2321975,0.1478 -0.3207569,0.25059 -0.050866,0.059 -0.078275,0.13484 -0.1202838,0.20047 -0.038218,0.0597 -0.090807,0.11094 -0.1202838,0.17542 -0.024937,0.0546 -0.00866,0.12433 -0.040095,0.17541 -0.038405,0.0624 -0.1146016,0.0931 -0.1603784,0.15036 -0.1787198,0.2234 -0.031479,0.0679 -0.080189,0.25059 -0.00551,0.0207 -0.033574,0.0297 -0.040095,0.0501 -0.00764,0.0239 -0.00786,0.099 0,0.0752 0.2614094,-0.79111 0.5078649,-1.58708 0.7617974,-2.38062"
       id="path3762"
       inkscape:connector-curvature="0" />
    <path
       style="fill:none;stroke:#000000;stroke-width:0.26458332px;stroke-linecap:butt;stroke-linejoin:miter;stroke-opacity:1"
       d="m 1.3897236,228.72479 c 0.5595616,0.42461 1.1568481,0.68441 1.8042573,0.92719 0.2122355,0.0796 0.4341312,0.13404 0.6415135,0.22553 0.2481636,0.10948 0.472766,0.26817 0.7217029,0.37589 0.273518,0.11834 0.5637252,0.19399 0.8419867,0.30071 0.3099348,0.11886 0.610893,0.26059 0.9221761,0.37588 1.2419875,0.46 2.5214842,0.80917 3.7688929,1.25296 1.173967,0.41766 2.325248,0.90589 3.48823,1.35319"
       id="path3764"
       inkscape:connector-curvature="0" />
    <path
       style="fill:none;stroke:#000000;stroke-width:0.26458332px;stroke-linecap:butt;stroke-linejoin:miter;stroke-opacity:1"
       d="m 113.05301,271.02474 c -0.30733,-0.30076 -0.59842,-0.61905 -0.92199,-0.90227 -0.0211,-0.0184 -0.053,0.0182 -0.0802,0.025 -0.14936,0.0373 -0.29166,0.0838 -0.44104,0.1253 -0.054,0.015 -0.1048,0.0432 -0.16038,0.0501 -0.22403,0.028 -0.53726,0 -0.76179,0 -0.34813,0 -0.69559,0.0191 -1.04246,0.0501 -0.38561,0.0344 -0.51015,0.0646 -0.88208,0.0752 -0.82709,0.0235 -1.65831,0 -2.48587,0 -0.65488,0 -1.30976,0 -1.96463,0 -0.33126,0 -0.67189,0.0229 -1.00237,0 -0.35622,-0.0247 -0.0529,-0.011 -0.36085,-0.0752 -0.12951,-0.027 -0.23944,-0.0248 -0.36085,-0.0501 -0.0674,-0.014 -0.13225,-0.0406 -0.20048,-0.0501 -0.11914,-0.0165 -0.24056,0 -0.36085,0 -0.32076,0 -0.64151,0 -0.96227,0 -0.13365,0 -0.26833,0.0166 -0.40094,0 -0.20516,-0.0256 -0.392,-0.11075 -0.60142,-0.1253 -0.317053,-0.022 -0.644536,0 -0.962274,0 -0.614783,0 -1.229569,0 -1.844352,0"
       id="path3766"
       inkscape:connector-curvature="0" />
    <path
       style="fill:none;stroke:#000000;stroke-width:0.26458332px;stroke-linecap:butt;stroke-linejoin:miter;stroke-opacity:1"
       d="m 97.255914,270.14747 c 0.01336,0.15873 0.06526,0.31889 0.0401,0.47618 -0.0065,0.0404 -0.07943,0.0222 -0.120285,0.0251 -0.07999,0.006 -0.160507,-0.005 -0.240567,0 -0.110466,0.006 -0.451117,0.0664 -0.521229,0.0752 -0.293444,0.0367 -0.587187,0.0251 -0.882081,0.0251 -0.788527,0 -1.577054,0 -2.365582,0 -0.253933,0 -0.507865,0 -0.761798,0 -0.147014,0 -0.29467,-0.0137 -0.44104,0 -0.12233,0.0114 -0.23858,0.0631 -0.360852,0.0752 -0.133003,0.0131 -0.267377,-0.005 -0.400947,0 -0.10718,0.004 -0.21351,0.0251 -0.320757,0.0251 -0.120573,0 -0.240382,-0.02 -0.360849,-0.0251 -0.08012,-0.003 -0.1612,0.0115 -0.24057,0 -0.09586,-0.0138 -0.185187,-0.0589 -0.280662,-0.0752 -0.140253,-0.0239 -0.376063,-0.007 -0.521229,-0.0251 -0.08128,-0.0102 -0.158657,-0.0501 -0.240567,-0.0501 -0.06888,0 -0.131908,0.0435 -0.200475,0.0501 -0.106426,0.0102 -0.213836,0 -0.320754,0 -0.307393,0 -0.614786,0 -0.922176,0 -0.935543,0 -1.871083,0 -2.806624,0 -0.307392,0 -0.614783,0 -0.922176,0 -0.200472,0 -0.40174,0.0178 -0.601419,0 -0.107788,-0.01 -0.212968,-0.0405 -0.320757,-0.0501 -0.07987,-0.007 -0.16047,0.004 -0.240567,0 -0.214982,-0.0103 -0.427503,-0.0334 -0.641514,-0.0501 -0.03997,-0.003 -0.08067,0.006 -0.120285,0 -0.06805,-0.0106 -0.13159,-0.0501 -0.200472,-0.0501 -0.04344,0 -0.07726,0.0441 -0.120285,0.0501 -0.132376,0.0184 -0.267295,0 -0.400944,0 -0.387583,0 -0.775163,0 -1.162743,0"
       id="path3768"
       inkscape:connector-curvature="0" />
    <path
       style="fill:none;stroke:#000000;stroke-width:0.26458332px;stroke-linecap:butt;stroke-linejoin:miter;stroke-opacity:1"
       d="m 80.255807,270.62375 c 0.02826,-0.49888 0.207503,-1.0738 0.160383,-1.60388 -0.03732,-0.41991 -0.165074,-0.8326 -0.200472,-1.25296 -0.04764,-0.56569 0.075,-1.1463 -0.08019,-1.70402 -0.03103,-0.11152 -0.08368,-0.21595 -0.120285,-0.32577 -0.149048,-0.44714 -0.0048,-0.11693 -0.200472,-0.62648 -0.135626,-0.35319 -0.09868,-0.21009 -0.280662,-0.5513 -0.0436,-0.0817 -0.07034,-0.17255 -0.120285,-0.25059 -0.05766,-0.0901 -0.133646,-0.16706 -0.200472,-0.25059 -0.181174,-0.22647 -0.356021,-0.44624 -0.561324,-0.65154"
       id="path3770"
       inkscape:connector-curvature="0" />
    <path
       style="fill:none;stroke:#000000;stroke-width:0.26458332px;stroke-linecap:butt;stroke-linejoin:miter;stroke-opacity:1"
       d="m 80.255805,270.62375 c -0.133646,-0.43439 -0.281993,-0.86453 -0.400939,-1.30317 -0.0241,-0.0889 0,-0.34896 0,-0.45107 0,-0.19344 0.02782,-0.41012 0,-0.60142 -0.0063,-0.0434 -0.0343,-0.0818 -0.0401,-0.12529 -0.0077,-0.058 0.0077,-0.11746 0,-0.17542 -0.01863,-0.13971 -0.10714,-0.22882 -0.160377,-0.35083 -0.02074,-0.0475 -0.02082,-0.10219 -0.04009,-0.15035 -0.04219,-0.10548 -0.136679,-0.18961 -0.16038,-0.30071 -0.01569,-0.0735 0,-0.15035 0,-0.22553 0,-0.0585 -0.0097,-0.11776 0,-0.17541 0.04307,-0.25575 0.0898,-0.29685 0.16038,-0.52625 0.224951,-0.73109 0.479576,-1.45624 0.641514,-2.2052 0.124079,-0.57386 0.03837,-0.28608 0.160377,-0.87707 0.02262,-0.10952 0.05826,-0.21611 0.08019,-0.32577 0.09464,-0.47318 0.167907,-0.95154 0.240567,-1.42837 0.02548,-0.16725 0.06263,-0.33291 0.08019,-0.50118 0.01897,-0.18176 0.04938,-0.95636 0.08019,-1.17778 0.0293,-0.21061 0.0846,-0.41685 0.120282,-0.62648 0.03116,-0.18307 0.05346,-0.36753 0.08019,-0.5513"
       id="path3772"
       inkscape:connector-curvature="0" />
    <path
       style="fill:none;stroke:#000000;stroke-width:0.26458332px;stroke-linecap:butt;stroke-linejoin:miter;stroke-opacity:1"
       d="m 78.652028,263.40662 c 0.201485,-1.81338 0.39022,-2.42847 0.04009,-1.30307 -0.04145,0.13323 -0.115994,0.26148 -0.120285,0.40094 -0.0093,0.30175 0.154133,0.60943 0.08019,0.90213 -0.0938,0.37128 -0.412721,0.64943 -0.561324,1.00237 -0.05535,0.13145 -0.02633,0.28404 -0.0401,0.426 -0.05256,0.54205 -0.04009,0.25131 -0.04009,0.77684 0,0.0835 -0.01463,0.16835 0,0.25059 0.01259,0.0709 0.05825,0.13192 0.08019,0.20047 0.02392,0.0747 0.03156,0.24525 0.120282,0.30071 0.01132,0.007 0.02673,0 0.04009,0 0.01336,0 0.02876,0.007 0.04009,0 2.64e-4,-1.8e-4 -0.0044,-0.1955 0,-0.22553 0.06281,-0.43179 0.112302,-0.86737 0.16038,-1.30308 0.02855,-0.25875 0.04272,-0.51922 0.08019,-0.77683 0.03179,-0.21855 0.102671,-0.4314 0.120285,-0.65154 0.129608,-1.62012 0.02461,-0.40556 -0.0401,-1.05248 -0.0041,-0.0407 0.02154,-0.34713 0,-0.40095 -0.02384,-0.0596 -0.09645,0.0908 -0.120282,0.15036 -0.06683,0.16707 -0.08019,0.35082 -0.120285,0.52624 -0.08574,0.3751 -0.149889,0.75361 -0.240567,1.12766 -0.109265,0.45071 -0.201248,0.90503 -0.320757,1.35319 -0.07397,0.27739 -0.168834,0.54898 -0.240568,0.82695 -0.145698,0.56458 -0.222636,1.1468 -0.400947,1.70403 -0.05837,0.18241 -0.152021,0.33515 -0.240567,0.50118 -0.01693,0.0317 -0.02069,0.0699 -0.04009,0.10023 -0.01974,0.0309 -0.0573,0.0466 -0.08019,0.0752"
       id="path3782"
       inkscape:connector-curvature="0" />
    <path
       style="fill:none;stroke:#000000;stroke-width:0.26458332px;stroke-linecap:butt;stroke-linejoin:miter;stroke-opacity:1"
       d="m 76.807662,268.31823 c 0.472893,-0.34781 0.522076,-1.10356 0.92219,-1.55368 0.03847,-0.0433 0.08817,-0.0771 0.120284,-0.1253 0.04225,-0.0634 0.132276,-0.31441 0.160378,-0.37589 0.02363,-0.0517 0.05909,-0.0976 0.08019,-0.15035 0.136853,-0.34213 0.171865,-0.71972 0.240567,-1.07755 0.0204,-0.20882 0.119689,-0.39796 0.16038,-0.60141 0.04129,-0.20645 0.05236,-0.4178 0.08019,-0.62648 0.03948,-0.29609 0.08019,-0.57814 0.08019,-0.87707 0,-0.44271 0,-0.88542 0,-1.32814 0,-0.0835 0,-0.16706 0,-0.25059 0,-0.0418 0,-0.0835 0,-0.12529 0,-0.008 -0.0084,-0.0251 0,-0.0251 0.0084,0 0.0039,0.0177 0,0.0251 -0.02334,0.0438 -0.05685,0.0815 -0.08019,0.12529 -0.07509,0.1408 -0.109916,0.29968 -0.160377,0.45107 -0.131546,0.39463 -0.188085,0.80897 -0.320757,1.20284 -0.05744,0.17051 -0.135216,0.3335 -0.200473,0.50118 -0.13391,0.34407 -0.242093,0.64773 -0.360852,1.00236 -0.289163,0.86348 -0.03935,0.13834 -0.320757,1.12766 -0.04799,0.16872 -0.117109,0.3312 -0.160379,0.50119 -0.05043,0.19812 -0.0767,0.40167 -0.120283,0.60142 -0.0048,0.0221 -0.240567,1.0003 -0.240567,1.00236 -1.8e-5,1.35082 0.464294,-0.30537 -0.280664,1.30308 -0.05384,0.11625 -0.0444,0.25287 -0.08019,0.37588 -0.04773,0.16408 -0.0401,0.0729 -0.0401,0.20048 0,0.0167 -0.0079,0.0649 0,0.0501 0.07289,-0.13667 0.130744,-0.39659 0.160378,-0.52624 0.01701,-0.0744 0.0096,-0.15555 0.04009,-0.22553 0.571829,-1.31046 0.174536,0.24543 0.400947,-1.67896 0.03157,-0.26828 0.184804,-0.89896 0.240568,-1.17778 0.451003,-2.25502 -0.169691,0.808 0.200472,-1.2279 0.05011,-0.27562 0.164592,-0.7003 0.240569,-0.9773 0.03903,-0.1423 0.0845,-0.28286 0.120283,-0.42601 0.03107,-0.12429 0.045,-0.2527 0.08019,-0.37589 0.0318,-0.1113 0.08368,-0.21595 0.120284,-0.32576 0.150096,-0.4503 0.0094,-0.10163 0.160378,-0.52625 0.0241,-0.0678 0.05825,-0.13192 0.08019,-0.20047 0.03656,-0.11425 0.04668,-0.23564 0.08019,-0.35083 0.02011,-0.0691 0.04139,-0.13985 0.08019,-0.20047 0.0085,-0.0133 0.03025,-0.0127 0.0401,-0.0251 0.0052,-0.007 0.0035,-0.0326 0,-0.025 -0.18932,0.41414 -0.201777,0.89258 -0.320757,1.32813 -0.108202,0.3961 -0.240099,0.78533 -0.360852,1.17778 -0.200626,0.65203 -0.273749,0.80518 -0.44104,1.45343 -0.07291,0.2825 -0.134466,0.56782 -0.200474,0.85201 -0.05428,0.2337 -0.104056,0.46844 -0.160378,0.70166 -0.0506,0.20953 -0.15422,0.411 -0.160377,0.62647 -0.0075,0.26193 0.162854,0.5183 0.120269,0.77685 -0.01452,0.0882 -0.48288,0.76912 -0.400933,1.12765 0.0082,0.0357 0.06295,-0.0428 0.08019,-0.0752 0.0436,-0.0817 0.08265,-0.16592 0.120285,-0.25059 0.181679,-0.40878 -0.0065,-0.0774 0.200459,-0.80188 0.0778,-0.2723 0.199298,-0.53065 0.280676,-0.80191 0.03917,-0.13054 0.05263,-0.26746 0.08019,-0.40094 0.08555,-0.41439 0.131588,-0.84428 0.240568,-1.25296 0.03185,-0.11945 0.08741,-0.23165 0.120284,-0.35083 0.225957,-0.81909 -0.05333,0.0246 0.160378,-0.67659 0.252309,-0.82789 -0.07432,0.28358 0.160379,-0.40095 0.01945,-0.0567 0.0078,-0.12489 0.04009,-0.17541 0.01154,-0.018 0.02196,0.0388 0.04009,0.0501 0.01132,0.007 0.03665,-0.0129 0.0401,0 0.01291,0.0484 0,0.10024 0,0.15036 0,0.0501 0.0053,0.10052 0,0.15035 -0.02973,0.27872 -0.09859,0.58169 -0.160377,0.85202 -0.124852,0.54622 -0.06206,0.0645 -0.16038,0.80189 -0.06092,0.4569 -0.07443,0.91966 -0.120283,1.37825 -0.02281,0.22798 -0.0498,0.47371 -0.08019,0.70165 -0.0024,0.0174 -0.0665,0.47553 -0.08019,0.50119 -0.01257,0.0236 -0.05346,0 -0.08019,0 -0.300714,0 -0.06399,0.0213 -0.48115,-0.52623"
       id="path3784"
       inkscape:connector-curvature="0" />
    <path
       style="fill:none;stroke:#000000;stroke-width:0.26458332px;stroke-linecap:butt;stroke-linejoin:miter;stroke-opacity:1"
       d="m 76.807662,268.31823 c -0.374213,0.30906 -0.717701,0.65963 -1.122635,0.92717 -0.07805,0.0516 -0.18783,0.0116 -0.280662,0 -0.175561,-0.0219 -0.34518,-0.0826 -0.521229,-0.10024 -0.159583,-0.0159 -0.320791,0.003 -0.481137,0 -0.254018,-0.005 -0.507767,-0.0205 -0.761796,-0.025 -0.213805,-0.004 -0.427937,0.0105 -0.641514,0 -3.426645,-0.16908 1.477396,-10e-4 -1.683975,-0.10024 -0.267297,-0.18378 -0.523968,-0.38407 -0.80189,-0.55135 -0.231784,-0.13951 -0.795313,-0.17355 -0.962271,-0.20048 -0.965943,-0.15579 -0.2808,-0.0982 -1.643879,-0.20047 -2.132724,-0.15995 -4.278599,-0.10024 -6.415136,-0.10024 -0.241841,-0.24993 -0.509095,0.001 -0.761798,-0.025 -0.05346,-0.008 -0.106919,-0.0167 -0.160378,-0.0251 -0.0401,-0.0167 -0.07747,-0.0428 -0.120284,-0.0501 -0.198308,-0.0338 -0.400326,-0.0447 -0.601419,-0.0501 -1.565508,-0.0425 -3.216218,0.045 -4.771258,0.20047 -0.361458,0.0362 -0.721097,0.0892 -1.082555,0.1253 -0.920255,0.092 -1.843381,0.17058 -2.766528,0.22553"
       id="path3786"
       inkscape:connector-curvature="0" />
    <path
       style="fill:none;stroke:#000000;stroke-width:0.26458332px;stroke-linecap:butt;stroke-linejoin:miter;stroke-opacity:1"
       d="m 51.227317,268.36838 c -0.614783,-0.27567 -1.214945,-0.58659 -1.844352,-0.827 -0.09988,-0.0382 -0.213871,0.003 -0.320757,0 -0.227285,-0.006 -0.454295,-0.0206 -0.681606,-0.0251 -0.200435,-0.004 -0.401056,0.007 -0.601419,0 -0.975,-0.053 -0.800569,-0.0506 -1.72407,-0.0752 -0.989542,-0.0263 -1.97907,-0.0582 -2.967001,-0.12529 -0.842563,-0.0572 -1.682972,-0.14502 -2.525958,-0.20047"
       id="path3788"
       inkscape:connector-curvature="0" />
    <path
       style="fill:none;stroke:#000000;stroke-width:0.26458332px;stroke-linecap:butt;stroke-linejoin:miter;stroke-opacity:1"
       d="m 38.717802,250.77682 c -0.227203,0.0167 -0.455552,0.0219 -0.681609,0.0501 -0.101386,0.0127 -0.491318,0.12138 -0.601419,0.15036 -0.447797,0.11784 -0.905759,0.22612 -1.363216,0.3007 -0.146031,0.0238 -0.294552,0.0293 -0.441042,0.0501 -0.273534,0.0157 -0.532831,0.11079 -0.801891,0.15036 -0.655457,0.0964 -0.0021,-0.0603 -0.601419,0.10023"
       id="path3790"
       inkscape:connector-curvature="0" />
    <path
       style="fill:none;stroke:#000000;stroke-width:0.26458332px;stroke-linecap:butt;stroke-linejoin:miter;stroke-opacity:1"
       d="m 38.717802,250.77682 c -0.280662,-0.0501 -0.556938,-0.15575 -0.841987,-0.15035 -0.108622,0.002 -0.760208,0.29784 -0.882081,0.35083 -0.481261,0.20924 -0.960683,0.42077 -1.443408,0.62647 -0.380785,0.16227 -0.375515,0.19044 -0.761796,0.27565 -0.03771,0.008 -0.761799,0.0971 -0.761799,0.0501 0,-0.1347 0.133649,-0.23391 0.200475,-0.35087"
       id="path3792"
       inkscape:connector-curvature="0" />
    <path
       style="fill:none;stroke:#000000;stroke-width:0.26458332px;stroke-linecap:butt;stroke-linejoin:miter;stroke-opacity:1"
       d="m 38.717802,250.77682 c -0.400947,-0.0835 -0.796296,-0.20101 -1.202839,-0.25059 -0.146872,-0.0179 -0.293727,0.0363 -0.441041,0.0501 -0.441114,0.0414 -0.884913,0.0819 -1.323121,0.15035 -0.174807,0.0273 -0.348022,0.0642 -0.521232,0.10024 -0.147592,0.0307 -0.320426,0.01 -0.441039,0.10024 -0.229325,0.17197 -0.374216,0.43431 -0.561324,0.65147"
       id="path3794"
       inkscape:connector-curvature="0" />
  </g>
</svg>
